<?xml version="1.0" ?><svg enable-background="new 0 0 157.0558 200.5649" id="pinterest" version="1.1" viewBox="0 0 157.0558 200.5649" xml:space="preserve" xmlns="http://www.w3.org/2000/svg" xmlns:xlink="http://www.w3.org/1999/xlink"><path d="M154.6144,49.9379c-3.0391-10.2676-7.9219-18.9121-14.9297-26.4238  c-6.8516-7.3477-14.7344-12.9199-24.1055-17.0352c-10.6719-4.6758-23.043-6.9473-34.8633-6.3984  c-4.3126,0.1973-8.5234,0.4238-12.6523,1.0215C56.4308,2.766,46.1886,6.2328,36.7511,11.7035  c-12.043,6.9863-21.4453,16.4922-27.9453,28.2539c-3.375,6.1211-6.6992,16.9141-8.1133,23.9609  c-1.6719,8.3106-0.1992,22.7246,3.1562,30.8535c4.1914,10.1328,7.6406,14.623,16.0508,20.8906  c0.0508,0.0371,5.25,3.7812,8.7148,3.7246c6.3086-0.1211,7.5625-6.1543,8.1641-9.0547c0.1133-0.5469,0.2227-1.0898,0.3555-1.5977  c0.1172-0.4492,0.2695-0.9297,0.4219-1.4297c0.8906-2.8809,2.1055-6.8242,0.0898-10.3203  c-0.7578-1.3105-1.6523-2.3301-2.4414-3.2266c-0.4297-0.4883-0.8594-0.959-1.207-1.4785  c-2.9922-4.4434-4.5078-10.0039-4.5078-16.5254c0-8.5566,1.9375-16.3066,5.9219-23.6914  c7.2305-13.3945,19.2305-21.8496,34.707-24.4551c8.8086-1.4746,19.0703-0.8574,26.7734,1.6094  c7.0352,2.2559,13.0234,6.2461,17.3203,11.5449c4.5469,5.6074,7.1484,12.7207,7.7227,21.1445  c0.375,5.377-0.1133,10.791-0.5156,14.3887c-1.5547,13.8438-5.5859,24.9883-11.9766,33.1289  c-5.2344,6.6797-10.8789,10.0293-17.2617,10.2441c-4.1094,0.1602-7.1797-0.6797-9.957-2.668  c-2.6211-1.8691-4.1797-4.1719-4.9141-7.2402c-0.832-3.5039,0.1719-7.1367,1.2383-10.9824l0.1719-0.6152  c0.9336-3.3848,1.9062-6.4766,2.8633-9.5195c1.5039-4.7949,3.0625-9.7539,4.3477-15.5039  c1.4531-6.4922,1.6445-11.7344,0.5938-16.0215c-1.2969-5.3203-4.1562-9.3047-8.5-11.8477  c-4.5977-2.6816-11.1094-3.1973-16.5742-1.3145c-8.1484,2.7812-14.3633,10.1797-17.0547,20.2988  c-1.3633,5.1406-1.7617,10.5352-1.1719,16.0254c0.4531,4.3047,1.4141,8.2148,3.1953,12.9395  c-0.0586,0.2051-0.125,0.4199-0.1875,0.6289c-0.1289,0.4219-0.2461,0.8281-0.332,1.1777c-1.918,7.998-3.7812,15.8867-5.6406,23.7617  c-1.7656,7.4766-3.5312,14.9414-5.3359,22.4805l-0.4062,1.6895c-1.8477,7.6816-3.7539,15.625-4.1953,25.1074l-0.1992,3.9609  c-0.3906,7.3672-0.7891,14.9863,0.1992,22.0352c0.1953,1.375,0.6289,4.459,3.6641,5.5371c0.9062,0.6816,1.7812,0.9668,2.6289,0.9668  c2.5391,0,4.8008-2.5801,6.7227-4.7676c6.2773-7.1367,11.6133-16.1465,16.3164-27.541c2.1055-5.0957,3.5-10.5781,4.8477-15.8828  l0.8125-3.1602c0.9844-3.7773,1.9492-7.6055,2.9023-11.3926l0.0625-0.252c1.7734,1.5508,3.8203,2.9512,6.1914,4.25  c5.0195,2.7793,10.6836,4.3984,16.8281,4.8105c5.7617,0.3906,11.8242-0.3477,18.5156-2.2676  c5.082-1.4492,9.9492-3.6504,14.4688-6.5449c16.2148-10.3828,27.2695-28.5469,31.125-51.1426  c1.1562-6.752,1.6484-12.1797,1.6484-18.1484C157.0558,61.6391,156.2355,55.3832,154.6144,49.9379z" fill="#535353"/><path d="M147.5245,85.3266c-3.4766,20.3516-13.2617,36.5996-27.5547,45.752  c-3.8633,2.4746-8.0195,4.3535-12.3594,5.5918c-5.7852,1.6621-10.9531,2.3086-15.7695,1.9785  c-5.043-0.3398-9.457-1.5918-13.5156-3.8398c-4.0586-2.2207-6.6914-4.6328-8.5391-7.8184l-4.9062-8.4707l-4.4219,17.3477  c-0.9492,3.7656-1.9062,7.5703-2.8867,11.3281l-0.8203,3.207c-1.3398,5.2617-2.6016,10.2324-4.4922,14.7988  c-4.2109,10.209-8.9141,18.2832-14.3555,24.6504c-0.4257-5.4199-0.1054-11.498,0.2071-17.4062l0.2031-4.0078  c0.4023-8.7266,2.2227-16.293,3.9805-23.6094l0.4102-1.6992c1.8047-7.5449,3.5703-15.0195,5.3398-22.502  c1.8593-7.8672,3.7188-15.7461,5.6328-23.7266c0.0547-0.2246,0.1367-0.4883,0.2188-0.7637  c0.4805-1.6133,0.9805-3.2793,0.3047-4.9727c-1.7148-4.3965-2.6211-7.9023-3.0234-11.7285  c-0.4805-4.5195-0.1641-8.9355,0.9531-13.127c1.9922-7.4902,6.332-12.8789,11.9141-14.7852  c1.3828-0.4746,2.832-0.6777,4.2227-0.6777c2.2695,0,4.3711,0.543,5.7227,1.332c2.4297,1.4219,3.9883,3.6562,4.7617,6.8398  c0.7422,3.0254,0.5312,7.1895-0.625,12.375c-1.2148,5.4199-2.6523,10.002-4.1758,14.8535c-0.9844,3.127-1.9805,6.3047-2.9414,9.7852  l-0.168,0.6074c-1.2305,4.4375-2.625,9.4648-1.3125,14.9766c1.1914,4.9902,3.8242,8.8809,8.043,11.8945  c4.1914,2.9961,9.1133,4.3359,14.8789,4.1543c8.7656-0.2949,16.5977-4.7715,23.2852-13.3008  c7.3242-9.3262,11.9102-21.832,13.6367-37.1797c0.4336-3.9121,0.9648-9.8086,0.5469-15.8281  c-0.6953-10.0977-3.8867-18.7207-9.4922-25.6328c-5.2773-6.5078-12.5703-11.3926-21.0938-14.123  c-8.8438-2.8379-20.5469-3.5625-30.5391-1.8828c-18,3.0312-31.9766,12.9004-40.4219,28.5449  c-4.6328,8.582-6.8828,17.5742-6.8828,27.4922c0,8.1426,1.9727,15.2031,5.8672,20.9883c0.5352,0.7988,1.1758,1.5449,1.8398,2.2969  c0.5977,0.6797,1.1602,1.3203,1.5039,1.916c0.2422,0.6523-0.4531,2.9082-0.7891,3.9922c-0.1875,0.6113-0.3672,1.1992-0.5117,1.748  c-0.168,0.6387-0.3125,1.3223-0.457,2.0117c-0.1562,0.7539-0.3945,1.916-0.6484,2.5547c-0.9492-0.3711-2.6797-1.3223-3.6172-2.0176  c-7.1875-5.3535-9.8242-8.7949-13.4336-17.5273c-2.707-6.5625-4.0508-19.5508-2.707-26.2227  c1.5-7.4766,4.6953-16.9941,7.2734-21.668c5.7891-10.4746,14.1836-18.9551,24.957-25.2031  c8.5312-4.9453,17.8281-8.0859,28.4375-9.6035c3.7734-0.5469,7.7734-0.7598,11.8828-0.9473  c10.6016-0.498,21.7148,1.5391,31.2773,5.7324c8.3516,3.668,15.375,8.627,21.4688,15.166  c6.1445,6.584,10.4297,14.1855,13.1094,23.2422c1.4023,4.709,2.1133,10.1992,2.1133,16.3125  C149.0558,74.018,148.5988,79.0434,147.5245,85.3266z" fill="#D8D8D8"/></svg>